<?xml version="1.0" encoding="utf-8"?>
<!-- Generator: Adobe Illustrator 23.0.1, SVG Export Plug-In . SVG Version: 6.00 Build 0)  -->
<svg version="1.1" id="Слой_1" xmlns="http://www.w3.org/2000/svg" xmlns:xlink="http://www.w3.org/1999/xlink" x="0px" y="0px"
	 viewBox="0 0 341 54" style="enable-background:new 0 0 341 54;" xml:space="preserve">
<style type="text/css">
	.st0{fill:#1D1C1C;}
	.st1{fill:#ECAE11;}
	.st2{fill:#314F9C;}
</style>
<path class="st0" d="M99.8,34.3c-7.2,0-11.1-4.3-11.1-9.9s4.1-9.7,11.1-9.7v-2h6.1v2c7.1,0,11.1,4,11.1,9.7s-4,9.9-11.1,9.9v2.5
	h-6.1V34.3z M99.8,20.2c-2.9,0-4.9,1.6-4.9,4.3s2,4.4,4.9,4.4V20.2z M110.8,24.5c0-2.7-2-4.3-4.9-4.3v8.7
	C108.8,28.9,110.8,27.3,110.8,24.5z"/>
<path class="st0" d="M119.8,13.7h9.4c5.6,0,9.1,2.9,9.1,7.8c0,5.2-4,8-9.4,8h-3v6.3h-6.1V13.7z M128.8,24.8c2.2,0,3.5-1.1,3.5-3
	c0-1.8-1.4-2.9-3.5-2.9h-2.9v5.8H128.8z"/>
<path class="st0" d="M140.2,24.8c0-6.4,5.1-11.5,11.9-11.5s11.8,5.1,11.8,11.5s-5.1,11.5-11.9,11.5
	C145.2,36.4,140.2,31.2,140.2,24.8z M157.6,24.8c0.2-3.2-2.3-5.8-5.5-6c-0.1,0-0.2,0-0.2,0c-3.3,0-5.6,2.7-5.6,6
	c-0.2,3.2,2.3,5.8,5.5,6c0.1,0,0.1,0,0.2,0C155.4,30.8,157.6,28.1,157.6,24.8z"/>
<path class="st0" d="M167,13.7h6.1V22h7.8v-8.3h6.1v22.2h-6.1v-8.4h-7.8v8.4H167V13.7z"/>
<path class="st0" d="M196.2,19.1h-6.6v-5.4h19.3v5.4h-6.6v16.8h-6.1L196.2,19.1z"/>
<path class="st0" d="M212.5,13.7h4.1l6.7,10.5l6.7-10.5h4.1v22.2h-3.8V20l-6.9,10.5h-0.2l-6.9-10.4v15.8h-3.8L212.5,13.7z"/>
<path class="st0" d="M246.9,13.6h3.6l9.6,22.3H256l-2.3-5.3h-10.3l-2.3,5.3h-4L246.9,13.6z M252.4,27.1l-3.8-8.9l-3.8,8.9H252.4z"/>
<path class="st0" d="M259.8,24.8c-0.1-6.2,4.7-11.3,10.8-11.5c0.2,0,0.3,0,0.5,0c3.2-0.2,6.3,1.1,8.6,3.4l-2.5,2.9
	c-1.7-1.7-3.6-2.7-6.2-2.7c-4.2,0-7.2,3.5-7.2,7.9s3.1,7.8,7.3,7.8c2.7,0,4.4-1.1,6.3-2.9l2.5,2.5c-2.3,2.6-5.5,4-8.9,3.9
	c-6.1,0.1-11.1-4.9-11.1-11C259.8,25.1,259.8,24.9,259.8,24.8z"/>
<path class="st0" d="M289.9,17.3h-7v-3.6h17.8v3.6h-6.9v18.5h-3.9V17.3z"/>
<path class="st0" d="M304.2,13.7h16.3v3.5H308V23h11v3.5h-11v5.9h12.6v3.5h-16.4V13.7z"/>
<path class="st0" d="M324,13.7h8.7c5.1,0,8.4,3,8.4,7.4c0,4.9-4,7.6-8.8,7.6h-4.4v7.1H324V13.7z M332.3,25.2c2.9,0,4.7-1.7,4.7-4
	c0-2.6-1.9-3.9-4.7-3.9h-4.5v8H332.3z"/>
<path class="st0" d="M88.5,46.4H91c0.5,0,1.1,0.2,1.4,0.5c0.2,0.2,0.4,0.6,0.4,0.9c0,0.5-0.3,1-0.8,1.2c0.6,0.2,1.1,0.7,1.1,1.4
	c0,1-0.8,1.5-2,1.5h-2.5L88.5,46.4z M90.7,48.7c0.6,0,1-0.2,1-0.8c0-0.5-0.3-0.7-1-0.7h-1.4v1.4L90.7,48.7z M91,51
	c0.7,0,1.1-0.2,1.1-0.8c0-0.5-0.4-0.8-1.1-0.8h-1.5V51H91z"/>
<path class="st0" d="M94.5,49.1c0-1.5,1.1-2.8,2.6-2.8c0.1,0,0.1,0,0.2,0c0.8-0.1,1.6,0.2,2.1,0.8l-0.6,0.7
	c-0.4-0.5-0.9-0.7-1.5-0.7c-1.1,0.1-1.8,1.1-1.7,2.1c0.1,0.9,0.8,1.7,1.7,1.7c0.6,0,1.1-0.2,1.6-0.7l0.6,0.6c-0.5,0.6-1.4,1-2.2,1
	c-1.5,0-2.7-1.2-2.8-2.7C94.5,49.1,94.5,49.1,94.5,49.1z"/>
<path class="st0" d="M101,46.4h4v0.8h-3v1.4h2.7v0.8H102v1.4h3.1v0.9H101V46.4z M101.8,45h1v0.9h-1V45z M103.3,45h1v0.9h-1V45z"/>
<path class="st0" d="M109.3,51h0.5c0.5-1.2,0.8-2.5,0.7-3.8v-0.8h3.8V51h0.7l-0.2,2.1H114v-1.1h-3.8l-0.1,1.1h-0.8L109.3,51z
	 M113.2,51v-3.7h-1.9v0.6c0,1.1-0.2,2.1-0.6,3.1H113.2z"/>
<path class="st0" d="M115.7,51.8l0.1-0.8c0.1,0,0.2,0.1,0.3,0.1c0.5,0,1.1-0.4,1.1-3.6v-1.1h3.7v5.4h-1v-4.6H118v0.5
	c0,3.4-0.6,4.1-1.7,4.1C116.1,51.9,115.9,51.8,115.7,51.8z"/>
<path class="st0" d="M123.9,49.7c-0.8-0.2-1.3-0.8-1.3-1.7c0-1.1,0.8-1.7,2-1.7h2.4v5.4h-1v-1.9h-1.2l-1.4,1.9h-1.1L123.9,49.7z
	 M126.1,49.1v-1.9h-1.4c-0.7,0-1.1,0.4-1.1,0.9c0,0.5,0.5,0.9,1.1,0.9L126.1,49.1z"/>
<path class="st0" d="M132.1,46.4h1v2.7l2.6-2.7h1.1l-2.3,2.4l2.3,3.1h-1.1l-1.8-2.4l-0.8,0.8v1.6h-1V46.4z"/>
<path class="st0" d="M138.3,46.4h2.1c1-0.2,1.9,0.6,2,1.6c0,0.1,0,0.2,0,0.2c0,1.2-1,1.8-2.2,1.8h-1v1.7h-1V46.4z M140.3,49.2
	c0.7,0,1.1-0.4,1.1-1c0-0.6-0.5-1-1.1-1h-1.1v2H140.3z"/>
<path class="st0" d="M143.9,49.1c0-1.6,1.2-2.9,2.8-2.9c1.6,0,2.9,1.2,2.9,2.8c0,1.6-1.2,2.9-2.8,2.9
	C145.2,51.9,144,50.7,143.9,49.1C143.9,49.1,143.9,49.1,143.9,49.1z M148.6,49.1c0-1.1-0.8-1.9-1.8-1.9c0,0,0,0-0.1,0
	c-1,0-1.8,0.8-1.8,1.8v0.1c0,1.1,0.8,1.9,1.8,1.9c0,0,0,0,0.1,0C147.7,51,148.6,50.1,148.6,49.1C148.5,49.1,148.5,49.1,148.6,49.1z"
	/>
<path class="st0" d="M151.3,46.4h2.4c0.5,0,1.1,0.2,1.4,0.5c0.2,0.2,0.4,0.6,0.4,0.9c0,0.5-0.3,1-0.8,1.2c0.6,0.2,1.1,0.7,1.1,1.4
	c0,1-0.8,1.5-2,1.5h-2.6V46.4z M153.6,48.7c0.6,0,1.1-0.2,1.1-0.8c0-0.5-0.3-0.7-1-0.7h-1.4v1.4L153.6,48.7z M153.9,51
	c0.7,0,1.1-0.2,1.1-0.8c0-0.5-0.4-0.8-1.1-0.8h-1.5V51H153.9z"/>
<path class="st0" d="M156.7,51.8l0.1-0.8c0.1,0,0.2,0.1,0.3,0.1c0.5,0,1.1-0.4,1.1-3.6v-1.1h3.7v5.4h-1v-4.6h-1.9v0.5
	c0,3.4-0.6,4.1-1.7,4.1C157.1,51.9,156.9,51.8,156.7,51.8z"/>
<path class="st0" d="M163.9,46.4h0.9v3.9l2.7-3.9h0.9v5.4h-0.9v-3.9l-2.7,3.9h-0.9V46.4z"/>
<path class="st0" d="M173.5,46.4h0.9v3.9l2.7-3.9h0.9v5.4h-0.9v-3.9l-2.7,3.9h-0.9V46.4z"/>
<path class="st0" d="M185.4,51.4c-1.7,0-2.7-1-2.7-2.4s1-2.4,2.7-2.4v-0.5h1v0.5c1.7,0,2.7,1,2.7,2.4s-1,2.4-2.7,2.4V52h-1V51.4z
	 M185.4,47.5c-1.1,0-1.7,0.6-1.7,1.5s0.7,1.5,1.7,1.5V47.5z M188,49.1c0-1-0.7-1.5-1.7-1.5v3C187.4,50.6,188,50.1,188,49.1z"/>
<path class="st0" d="M192.4,46.3h0.9l2.3,5.5h-1l-0.5-1.3h-2.6l-0.5,1.3h-1L192.4,46.3z M193.8,49.7l-0.9-2.2l-0.9,2.2H193.8z"/>
<path class="st0" d="M196.7,49.1c0-1.5,1.1-2.8,2.6-2.8h0.1c0.8,0,1.6,0.3,2.1,0.8l-0.6,0.8c-0.4-0.5-0.9-0.7-1.5-0.7
	c-1.1,0.1-1.8,1.1-1.7,2.1c0.1,0.9,0.8,1.7,1.7,1.7c0.6,0,1.1-0.2,1.5-0.7l0.6,0.6c-0.5,0.6-1.4,1-2.2,1c-1.5,0-2.7-1.2-2.7-2.7
	C196.7,49.1,196.7,49.1,196.7,49.1z"/>
<path class="st0" d="M205,46.3h0.9l2.3,5.5h-1l-0.5-1.3h-2.6l-0.5,1.3h-1L205,46.3z M206.4,49.7l-0.9-2.2l-0.9,2.2H206.4z"/>
<path class="st0" d="M209.2,51h0.5c0.5-1.2,0.8-2.5,0.7-3.8v-0.8h3.8V51h0.7l-0.1,2.1H214v-1.1h-3.8l-0.1,1.1h-0.8V51z M213.2,51
	v-3.7h-1.9v0.6c0,1.1-0.1,2.1-0.6,3.1H213.2z"/>
<path class="st0" d="M218.3,46.3h0.8l2.3,5.5h-1l-0.5-1.3h-2.6l-0.5,1.3h-1L218.3,46.3z M219.6,49.7l-0.9-2.2l-0.9,2.2H219.6z"/>
<path class="st0" d="M225.8,49h2.3v0.9h-2.3V49z"/>
<path class="st0" d="M232.6,49.1c0-1.6,1.2-2.9,2.8-2.9c1.6,0,2.9,1.2,2.9,2.8c0,1.6-1.2,2.9-2.8,2.9
	C233.9,51.9,232.7,50.7,232.6,49.1C232.6,49.1,232.6,49.1,232.6,49.1z M237.2,49.1c0-1.1-0.8-1.9-1.8-1.9c0,0,0,0-0.1,0
	c-1,0-1.8,0.8-1.8,1.8v0.1c0,1.1,0.8,1.9,1.8,1.9c0,0,0,0,0.1,0C236.4,51,237.2,50.1,237.2,49.1C237.2,49.1,237.2,49.1,237.2,49.1z"
	/>
<path class="st0" d="M240.9,47.2h-1.7v-0.9h4.4v0.9h-1.7v4.6h-0.9V47.2z"/>
<path class="st0" d="M248.2,46.4h0.9v3.9l2.7-3.9h0.9v5.4h-0.9v-3.9l-2.7,3.9h-0.9V46.4z"/>
<path class="st0" d="M254.2,51h0.5c0.5-1.2,0.8-2.5,0.7-3.8v-0.8h3.8V51h0.7l-0.2,2.1h-0.8v-1.1h-3.8l-0.1,1.1h-0.8L254.2,51z
	 M258.3,51v-3.7h-1.9v0.6c0,1.1-0.2,2.1-0.6,3.1H258.3z"/>
<path class="st0" d="M261.3,46.4h4v0.8h-3v1.4h2.7v0.8h-2.7v1.4h3.1v0.9h-4.1V46.4z"/>
<path class="st0" d="M267.1,46.4h0.9v3.9l2.7-3.9h0.9v5.4h-0.9v-3.9l-2.7,3.9h-0.9V46.4z"/>
<path class="st0" d="M276.1,51h0.5c0.5-1.2,0.8-2.5,0.7-3.8v-0.8h3.8V51h0.7l-0.2,2.1h-0.8v-1.1h-3.8L277,53h-0.8L276.1,51z
	 M280.1,51v-3.7h-1.9v0.6c0,1.1-0.2,2.1-0.6,3.1H280.1z"/>
<path class="st0" d="M283,49.1c0-1.6,1.2-2.9,2.8-2.9s2.9,1.2,2.9,2.8c0,1.6-1.2,2.9-2.8,2.9C284.4,51.9,283.1,50.7,283,49.1
	C283,49.1,283,49.1,283,49.1z M287.6,49.1c0-1.1-0.8-1.9-1.8-1.9c0,0,0,0-0.1,0c-1,0-1.8,0.8-1.8,1.8v0.1c0,1.1,0.8,1.9,1.8,1.9
	c0,0,0,0,0.1,0C286.8,51,287.6,50.2,287.6,49.1C287.6,49.1,287.6,49.1,287.6,49.1z"/>
<path class="st0" d="M293.4,46.4h1L296,49l1.7-2.6h1v5.4h-1v-3.9l-1.7,2.6l-1.7-2.5v3.9h-0.9V46.4z"/>
<path class="st0" d="M300.5,49.1c0-1.6,1.2-2.9,2.8-2.9c1.6,0,2.9,1.2,2.9,2.8c0,1.6-1.2,2.9-2.8,2.9
	C301.8,51.9,300.6,50.7,300.5,49.1C300.5,49.1,300.5,49.1,300.5,49.1z M305.2,49.1c0-1.1-0.8-1.9-1.8-1.9c0,0,0,0-0.1,0
	c-1,0-1.8,0.8-1.8,1.8v0.1c0,1.1,0.8,1.9,1.8,1.9c0,0,0,0,0.1,0C304.3,51,305.2,50.1,305.2,49.1C305.2,49.1,305.2,49.1,305.2,49.1z"
	/>
<path class="st0" d="M307.9,46.4h1v2.3h2.6v-2.3h1v5.4h-1v-2.3h-2.6v2.3h-1V46.4z"/>
<path class="st0" d="M315.8,47.2H314v-0.9h4.4v0.9h-1.7v4.6h-1L315.8,47.2z"/>
<path class="st0" d="M321.3,46.3h0.9l2.3,5.5h-1l-0.5-1.3h-2.6l-0.5,1.3h-1L321.3,46.3z M322.6,49.7l-0.9-2.2l-0.9,2.2H322.6z"/>
<path class="st0" d="M329.1,51.8v-1.4l-0.8-1l-1.6,2.4h-1.1l2.1-3.1l-2-2.3h1.1l2.3,2.8v-2.8h1v2.8l2.3-2.8h1.1l-2,2.3l2.1,3.1h-1.1
	l-1.6-2.4l-0.8,1v1.4H329.1z"/>
<path class="st0" d="M337,46.3h0.9l2.3,5.5h-1l-0.5-1.3h-2.6l-0.5,1.3h-1L337,46.3z M338.4,49.7l-0.9-2.2l-0.9,2.2H338.4z"/>
<path class="st1" d="M38.9,54H16.3c-0.3,0-0.5-0.2-0.5-0.5c0-3.9,0-7.9,0-11.8c0-0.5,0-0.5,0.5-0.5h31.1c0.6,0,0.6,0,0.6-0.6
	c0-3.6,0-7.3,0-10.9c0-0.2,0-0.4,0-0.5c0-0.2,0.2-0.4,0.4-0.2c0.2,0.2,0.7,0.4,1,0.6l3.4,2.1l3.2,2l2.9,1.7c0.9,0.5,1.7,1.1,2.6,1.6
	c0.1,0.1,0.2,0.2,0.2,0.3c0,0.2,0,0.5,0,0.7c0,5.2,0,10.4,0,15.6c0,0.4-0.1,0.5-0.5,0.5L38.9,54z"/>
<path class="st2" d="M0,36.4c0-5.5,0-11.1,0-16.6c-0.1-0.6,0.3-1.1,0.8-1.4c1.2-0.7,2.4-1.5,3.7-2.3l3.6-2.2l5.6-3.4
	c0.8-0.5,1.4-0.9,2.2-1.3c0.2-0.1,0.3-0.1,0.4,0c2,1.2,3.8,2.4,5.8,3.6l5.9,3.6l0.7,0.5c0.3,0.2,0.3,0.3,0,0.5
	c-0.3,0.2-0.6,0.4-0.9,0.6l-6.3,3.9l-6.1,3.7c-0.5,0.2-0.9,0.5-1.3,0.8c-0.2,0.2-0.2,0.3-0.3,0.5c0,0.2,0,0.5,0,0.7
	c0,8.7,0,17.5,0,26.2c0,0.3-0.1,0.5-0.5,0.5H0.5C0.2,53.9,0,53.8,0,53.5c0-3.9,0-7.8,0-11.8C0,40,0,38.2,0,36.4z"/>
<path class="st0" d="M61.8,22.6c0,3.9,0,7.7,0,11.6c0,0.2-0.1,0.2-0.1,0.4c-0.1,0-0.2-0.1-0.3-0.2L57,31.7c-0.8-0.5-1.6-1-2.3-1.4
	L51,28l-2.5-1.4L46,25.1l-2.3-1.4l-2.9-1.8c-0.8-0.5-1.6-1-2.3-1.4c-0.8-0.5-1.6-1-2.4-1.4l-2.3-1.4l-2.9-1.8L28,14l-4.7-2.7
	l-4.1-2.6l-1-0.6c-0.2-0.2-0.2-0.2,0-0.4l6.9-4.3l5.4-3.3c0.2-0.2,0.5-0.2,0.6,0l5.1,3.1L40.8,6l3.5,2.1c1.1,0.7,2.3,1.4,3.3,2.1
	c0.3,0.2,0.6,0.2,0.9,0.2h12.1c0.2,0,0.5,0,0.7,0c0.2,0,0.4,0.1,0.4,0.2v0.1c0,0.1,0,0.2,0,0.2C61.7,14.9,61.7,18.8,61.8,22.6z"/>
</svg>
