<svg width="341" height="54" viewBox="0 0 341 54" fill="none" xmlns="http://www.w3.org/2000/svg">
<g clip-path="url(#clip0_329_408)">
<path d="M99.7624 34.3292C92.6096 34.3292 88.6191 30.076 88.6191 24.3798C88.6191 18.6836 92.6849 14.6583 99.7624 14.6583V12.6836H105.861V14.6583C112.939 14.6583 117.004 18.6836 117.004 24.3798C117.004 30.076 113.014 34.3292 105.861 34.3292V36.8355H99.7624V34.3292ZM99.7624 20.2026C96.9013 20.2026 94.8684 21.7975 94.8684 24.5317C94.8684 27.2659 96.9013 28.9368 99.7624 28.9368V20.2026ZM110.83 24.5317C110.83 21.7975 108.798 20.2026 105.936 20.2026V28.9368C108.798 28.9368 110.755 27.3418 110.83 24.5317Z" fill="white"/>
<path d="M119.791 13.7466H129.202C134.774 13.7466 138.312 16.6327 138.312 21.5694C138.312 26.8099 134.322 29.5441 128.901 29.5441H125.889V35.8478H119.791V13.7466ZM128.75 24.7592C130.934 24.7592 132.214 23.62 132.214 21.7972C132.214 19.9744 130.859 18.9111 128.675 18.9111H125.814V24.7592H128.75Z" fill="white"/>
<path d="M140.195 24.8353C140.195 18.4556 145.315 13.291 152.091 13.291C158.867 13.291 163.912 18.3796 163.912 24.8353C163.912 31.291 158.792 36.3796 152.016 36.3796C145.239 36.3796 140.195 31.2151 140.195 24.8353ZM157.587 24.8353C157.738 21.6454 155.253 18.9872 152.091 18.8353C152.016 18.8353 151.94 18.8353 151.94 18.8353C148.628 18.8353 146.369 21.5695 146.369 24.8353C146.218 28.0252 148.703 30.6834 151.865 30.8353C151.94 30.8353 151.94 30.8353 152.016 30.8353C155.404 30.7594 157.587 28.1011 157.587 24.8353Z" fill="white"/>
<path d="M166.999 13.7466H173.098V22.0251H180.928V13.7466H187.027V35.9238H180.928V27.4934H173.098V35.9238H166.999V13.7466Z" fill="white"/>
<path d="M196.213 19.0633H189.587V13.6709H208.862V19.0633H202.236V35.8481H196.137L196.213 19.0633Z" fill="white"/>
<path d="M212.476 13.7466H216.617L223.318 24.2276L230.019 13.7466H234.16V35.9238H230.32V19.9744L223.393 30.4554H223.242L216.391 20.0504V35.8478H212.626L212.476 13.7466Z" fill="white"/>
<path d="M246.884 13.5947H250.498L260.136 35.9238H255.995L253.736 30.6074H243.421L241.162 35.9238H237.171L246.884 13.5947ZM252.38 27.1137L248.616 18.2276L244.851 27.1137H252.38Z" fill="white"/>
<path d="M259.759 24.8354C259.609 18.6835 264.503 13.5189 270.601 13.367C270.752 13.367 270.903 13.367 271.053 13.367C274.291 13.2151 277.378 14.5063 279.636 16.7848L277.152 19.6708C275.42 17.9999 273.538 16.9367 270.978 16.9367C266.761 16.9367 263.75 20.4303 263.75 24.8354C263.75 29.2405 266.837 32.6582 271.053 32.6582C273.764 32.6582 275.495 31.5189 277.378 29.7721L279.862 32.2784C277.604 34.8607 274.366 36.3037 270.978 36.2278C264.879 36.3037 259.835 31.367 259.835 25.2151C259.759 25.0632 259.759 24.9113 259.759 24.8354Z" fill="white"/>
<path d="M289.876 17.3165H282.874V13.6709H300.718V17.3165H293.791V35.8481H289.876V17.3165Z" fill="white"/>
<path d="M304.182 13.7466H320.445V17.2403H308.022V23.0124H319.015V26.5061H308.022V32.4301H320.596V35.9238H304.182V13.7466Z" fill="white"/>
<path d="M323.984 13.7466H332.643C337.762 13.7466 341 16.7086 341 21.1896C341 26.1263 337.01 28.7846 332.191 28.7846H327.824V35.9238H323.984V13.7466ZM332.341 25.2149C335.278 25.2149 337.085 23.5441 337.085 21.1896C337.085 18.6073 335.202 17.2403 332.341 17.2403H327.824V25.2149H332.341Z" fill="white"/>
<path d="M88.5439 46.4053H90.9533C91.4804 46.4053 92.0074 46.5572 92.3839 46.861C92.6097 47.0888 92.7603 47.4686 92.7603 47.7724C92.7603 48.304 92.4592 48.7597 92.0074 48.9876C92.6097 49.1395 93.0615 49.6711 93.0615 50.3546C93.0615 51.342 92.2333 51.8736 91.1039 51.8736H88.6192L88.5439 46.4053ZM90.7274 48.6838C91.3298 48.6838 91.7062 48.4559 91.7062 47.9243C91.7062 47.3926 91.4051 47.2407 90.7274 47.2407H89.3722V48.6078L90.7274 48.6838ZM91.0286 50.9622C91.7062 50.9622 92.0827 50.7344 92.0827 50.2027C92.0827 49.6711 91.7062 49.4432 90.9533 49.4432H89.4475V50.9622H91.0286Z" fill="white"/>
<path d="M94.4922 49.0633C94.4922 47.5443 95.6216 46.2532 97.1274 46.2532C97.2027 46.2532 97.2027 46.2532 97.278 46.2532C98.0309 46.1772 98.8592 46.481 99.3862 47.0886L98.7839 47.7722C98.4074 47.3165 97.8804 47.0886 97.278 47.0886C96.2239 47.1646 95.471 48.1519 95.5463 49.2152C95.6216 50.1266 96.3745 50.8861 97.278 50.962C97.8804 50.962 98.4074 50.7342 98.8592 50.2785L99.4615 50.8861C98.9345 51.4937 98.1062 51.8734 97.278 51.8734C95.7722 51.8734 94.5675 50.6582 94.4922 49.2152C94.4922 49.1392 94.4922 49.1392 94.4922 49.0633Z" fill="white"/>
<path d="M101.042 46.4052H105.033V47.2406H102.021V48.6077H104.732V49.4431H102.021V50.8862H105.108V51.7976H101.042V46.4052ZM101.795 45.0381H102.774V45.9495H101.795V45.0381ZM103.301 45.0381H104.28V45.9495H103.301V45.0381Z" fill="white"/>
<path d="M109.25 50.9622H109.777C110.304 49.747 110.529 48.4559 110.454 47.1648V46.4053H114.219V50.9622H114.896L114.746 53.0129H113.993V51.8736H110.228L110.153 53.0129H109.325L109.25 50.9622ZM113.24 50.9622V47.2407H111.358V47.8483C111.358 48.9116 111.207 49.9749 110.755 50.9622H113.24Z" fill="white"/>
<path d="M115.725 51.7974L115.8 51.0379C115.875 51.0379 116.026 51.1139 116.101 51.1139C116.628 51.1139 117.155 50.7341 117.155 47.5442V46.481H120.845V51.8734H119.866V47.3164H117.983V47.7721C117.983 51.1898 117.381 51.8734 116.327 51.8734C116.101 51.8734 115.95 51.7974 115.725 51.7974Z" fill="white"/>
<path d="M123.932 49.7468C123.179 49.5949 122.652 48.9114 122.652 48.0759C122.652 47.0126 123.405 46.3291 124.685 46.3291H127.094V51.7215H126.115V49.8228H124.91L123.555 51.7215H122.426L123.932 49.7468ZM126.115 49.0633V47.1645H124.76C124.082 47.1645 123.63 47.5443 123.63 48.0759C123.63 48.6076 124.082 48.9873 124.76 48.9873L126.115 49.0633Z" fill="white"/>
<path d="M132.063 46.4053H133.042V49.1394L135.602 46.4053H136.731L134.472 48.7597L136.806 51.8736H135.677L133.87 49.4432L133.042 50.2787V51.8736H132.063V46.4053Z" fill="white"/>
<path d="M138.312 46.4051H140.421C141.4 46.2532 142.303 47.0127 142.454 48.0001C142.454 48.076 142.454 48.152 142.454 48.2279C142.454 49.4431 141.475 50.0507 140.27 50.0507H139.291V51.7975H138.312V46.4051ZM140.345 49.2153C141.023 49.2153 141.475 48.8355 141.475 48.2279C141.475 47.6203 141.023 47.2406 140.345 47.2406H139.291V49.2153H140.345Z" fill="white"/>
<path d="M143.884 49.0633C143.884 47.4684 145.089 46.1772 146.67 46.1772C148.251 46.1772 149.531 47.3924 149.531 48.9874C149.531 50.5823 148.327 51.8735 146.745 51.8735C145.24 51.8735 143.96 50.6583 143.96 49.1393C143.884 49.1393 143.884 49.1393 143.884 49.0633ZM148.552 49.0633C148.552 48 147.799 47.1646 146.745 47.1646C146.745 47.1646 146.745 47.1646 146.67 47.1646C145.691 47.1646 144.863 48 144.863 48.9874V49.0633C144.863 50.1266 145.616 50.9621 146.67 50.9621C146.67 50.9621 146.67 50.9621 146.745 50.9621C147.724 50.9621 148.552 50.1266 148.552 49.1393C148.477 49.1393 148.477 49.1393 148.552 49.0633Z" fill="white"/>
<path d="M151.338 46.4053H153.747C154.274 46.4053 154.801 46.5572 155.178 46.861C155.404 47.0888 155.554 47.4686 155.554 47.7724C155.554 48.304 155.253 48.7597 154.801 48.9876C155.404 49.1395 155.855 49.6711 155.855 50.3546C155.855 51.342 155.027 51.8736 153.898 51.8736H151.338V46.4053ZM153.597 48.6838C154.199 48.6838 154.651 48.4559 154.651 47.9243C154.651 47.3926 154.35 47.2407 153.672 47.2407H152.317V48.6078L153.597 48.6838ZM153.898 50.9622C154.575 50.9622 154.952 50.7344 154.952 50.2027C154.952 49.6711 154.575 49.4432 153.823 49.4432H152.317V50.9622H153.898Z" fill="white"/>
<path d="M156.684 51.7974L156.759 51.0379C156.834 51.0379 156.985 51.1139 157.06 51.1139C157.587 51.1139 158.114 50.7341 158.114 47.5442V46.481H161.803V51.8734H160.825V47.3164H158.942V47.7721C158.942 51.1898 158.34 51.8734 157.286 51.8734C157.135 51.8734 156.909 51.7974 156.684 51.7974Z" fill="white"/>
<path d="M163.912 46.4053H164.815V50.3546L167.526 46.4053H168.429V51.7977H167.526V47.8483L164.815 51.7977H163.912V46.4053Z" fill="white"/>
<path d="M173.474 46.4053H174.378V50.3546L177.088 46.4053H177.992V51.7977H177.088V47.8483L174.378 51.7977H173.474V46.4053Z" fill="white"/>
<path d="M185.37 51.4177C183.638 51.4177 182.66 50.4304 182.66 49.0633C182.66 47.6962 183.638 46.7089 185.37 46.7089V46.1772H186.349V46.7089C188.005 46.7089 189.06 47.6962 189.06 49.0633C189.06 50.4304 188.081 51.4177 186.349 51.4177V52.0253H185.37V51.4177ZM185.37 47.5443C184.316 47.5443 183.638 48.1519 183.638 49.0633C183.638 49.9747 184.316 50.5823 185.37 50.5823V47.5443ZM188.005 49.0633C188.005 48.076 187.328 47.5443 186.274 47.5443V50.5823C187.403 50.5823 188.005 50.0507 188.005 49.0633Z" fill="white"/>
<path d="M192.448 46.3291H193.351L195.685 51.7975H194.707L194.18 50.5063H191.62L191.093 51.7975H190.114L192.448 46.3291ZM193.803 49.6709L192.9 47.4683L191.996 49.6709H193.803Z" fill="white"/>
<path d="M196.739 49.0635C196.739 47.5446 197.869 46.2534 199.375 46.2534H199.45C200.203 46.2534 201.031 46.5572 201.558 47.0889L200.956 47.8484C200.579 47.3927 200.052 47.1648 199.45 47.1648C198.396 47.2408 197.643 48.2281 197.718 49.2914C197.793 50.2028 198.546 50.9623 199.45 51.0382C200.052 51.0382 200.579 50.8104 200.956 50.3547L201.558 50.9623C201.031 51.5699 200.203 51.9496 199.375 51.9496C197.869 51.9496 196.664 50.7344 196.664 49.2154C196.739 49.1395 196.739 49.1395 196.739 49.0635Z" fill="white"/>
<path d="M205.022 46.3291H205.925L208.259 51.7975H207.28L206.753 50.5063H204.193L203.666 51.7975H202.688L205.022 46.3291ZM206.377 49.6709L205.473 47.4683L204.57 49.6709H206.377Z" fill="white"/>
<path d="M209.238 50.9622H209.765C210.292 49.747 210.518 48.4559 210.443 47.1648V46.4053H214.208V50.9622H214.885L214.735 53.0129H213.982V51.8736H210.217L210.067 53.0129H209.238V50.9622ZM213.229 50.9622V47.2407H211.346V47.8483C211.346 48.9116 211.196 49.9749 210.744 50.9622H213.229Z" fill="white"/>
<path d="M218.273 46.3291H219.101L221.435 51.7975H220.457L219.93 50.5063H217.37L216.843 51.7975H215.864L218.273 46.3291ZM219.628 49.6709L218.725 47.4683L217.821 49.6709H219.628Z" fill="white"/>
<path d="M225.802 48.9873H228.061V49.8987H225.802V48.9873Z" fill="white"/>
<path d="M232.579 49.0633C232.579 47.4684 233.783 46.1772 235.364 46.1772C236.946 46.1772 238.226 47.3924 238.226 48.9874C238.226 50.5823 237.021 51.8735 235.44 51.8735C233.934 51.8735 232.654 50.6583 232.654 49.1393C232.579 49.1393 232.579 49.1393 232.579 49.0633ZM237.247 49.0633C237.247 48 236.494 47.1646 235.44 47.1646C235.44 47.1646 235.44 47.1646 235.364 47.1646C234.386 47.1646 233.557 48 233.557 48.9874V49.0633C233.557 50.1266 234.31 50.9621 235.364 50.9621C235.364 50.9621 235.364 50.9621 235.44 50.9621C236.419 50.9621 237.247 50.1266 237.247 49.1393C237.247 49.1393 237.247 49.1393 237.247 49.0633Z" fill="white"/>
<path d="M240.936 47.2405H239.205V46.3291H243.572V47.2405H241.84V51.7975H240.936V47.2405Z" fill="white"/>
<path d="M248.24 46.4053H249.143V50.3546L251.854 46.4053H252.757V51.7977H251.854V47.8483L249.143 51.7977H248.24V46.4053Z" fill="white"/>
<path d="M254.188 50.9622H254.715C255.242 49.747 255.467 48.4559 255.392 47.1648V46.4053H259.157V50.9622H259.834L259.684 53.0129H258.931V51.8736H255.166L255.091 53.0129H254.263L254.188 50.9622ZM258.253 50.9622V47.2407H256.371V47.8483C256.371 48.9116 256.22 49.9749 255.769 50.9622H258.253Z" fill="white"/>
<path d="M261.34 46.4053H265.331V47.2407H262.319V48.6078H265.03V49.4432H262.319V50.8863H265.406V51.7977H261.34V46.4053Z" fill="white"/>
<path d="M267.138 46.4053H268.042V50.3546L270.752 46.4053H271.656V51.7977H270.752V47.8483L268.042 51.7977H267.138V46.4053Z" fill="white"/>
<path d="M276.098 50.9622H276.625C277.152 49.747 277.378 48.4559 277.302 47.1648V46.4053H281.067V50.9622H281.745L281.594 53.0129H280.841V51.8736H277.076L277.001 53.0129H276.173L276.098 50.9622ZM280.088 50.9622V47.2407H278.206V47.8483C278.206 48.9116 278.055 49.9749 277.604 50.9622H280.088Z" fill="white"/>
<path d="M283.025 49.0633C283.025 47.4684 284.23 46.1772 285.811 46.1772C287.392 46.1772 288.672 47.3924 288.672 48.9874C288.672 50.5823 287.467 51.8735 285.886 51.8735C284.38 51.8735 283.1 50.6583 283.1 49.1393C283.025 49.1393 283.025 49.1393 283.025 49.0633ZM287.618 49.0633C287.618 48 286.865 47.1646 285.811 47.1646C285.811 47.1646 285.811 47.1646 285.735 47.1646C284.757 47.1646 283.928 48 283.928 48.9874V49.0633C283.928 50.1266 284.681 50.9621 285.735 50.9621C285.735 50.9621 285.735 50.9621 285.811 50.9621C286.79 51.038 287.618 50.2026 287.618 49.0633C287.618 49.1393 287.618 49.1393 287.618 49.0633Z" fill="white"/>
<path d="M293.415 46.4053H294.394L296.05 48.9876L297.707 46.4053H298.686V51.7977H297.707V47.9243L295.975 50.5065L294.319 48.0002V51.8736H293.415V46.4053Z" fill="white"/>
<path d="M300.493 49.0633C300.493 47.4684 301.697 46.1772 303.278 46.1772C304.86 46.1772 306.14 47.3924 306.14 48.9874C306.14 50.5823 304.935 51.8735 303.354 51.8735C301.848 51.8735 300.568 50.6583 300.568 49.1393C300.493 49.1393 300.493 49.1393 300.493 49.0633ZM305.161 49.0633C305.161 48 304.408 47.1646 303.354 47.1646C303.354 47.1646 303.354 47.1646 303.278 47.1646C302.3 47.1646 301.471 48 301.471 48.9874V49.0633C301.471 50.1266 302.224 50.9621 303.278 50.9621C303.278 50.9621 303.278 50.9621 303.354 50.9621C304.333 50.9621 305.161 50.1266 305.161 49.1393C305.161 49.1393 305.161 49.1393 305.161 49.0633Z" fill="white"/>
<path d="M307.947 46.4053H308.926V48.6838H311.486V46.4053H312.464V51.7977H311.486V49.5192H308.926V51.7977H307.947V46.4053Z" fill="white"/>
<path d="M315.777 47.2405H314.045V46.3291H318.412V47.2405H316.681V51.7975H315.702L315.777 47.2405Z" fill="white"/>
<path d="M321.274 46.3291H322.177L324.511 51.7975H323.532L323.005 50.5063H320.445L319.918 51.7975H318.939L321.274 46.3291ZM322.629 49.6709L321.725 47.4683L320.822 49.6709H322.629Z" fill="white"/>
<path d="M329.104 51.7977V50.3546L328.275 49.3673L326.694 51.7977H325.565L327.673 48.6838L325.64 46.4053H326.77L329.104 49.2154V46.4053H330.083V49.2154L332.417 46.4053H333.546L331.513 48.6838L333.621 51.7977H332.492L330.911 49.3673L330.083 50.3546V51.7977H329.104Z" fill="white"/>
<path d="M337.009 46.3291H337.913L340.247 51.7975H339.268L338.741 50.5063H336.181L335.654 51.7975H334.675L337.009 46.3291ZM338.365 49.6709L337.461 47.4683L336.558 49.6709H338.365Z" fill="white"/>
<path d="M38.8509 53.9999H16.3385C16.0373 53.9999 15.8867 53.848 15.8867 53.5442C15.8867 49.5948 15.8867 45.6454 15.8867 41.6961C15.8867 41.2404 15.8867 41.1644 16.4138 41.1644H47.5096C48.1119 41.1644 48.1119 41.1644 48.1119 40.5568C48.1119 36.9113 48.1119 33.2657 48.1119 29.6201C48.1119 29.4682 48.1119 29.2404 48.1119 29.0885C48.1119 28.9366 48.2625 28.7087 48.4884 28.8606C48.7143 29.0125 49.166 29.2404 49.4672 29.4682L52.8554 31.5189L56.0177 33.4935L58.9541 35.2404C59.8576 35.772 60.6858 36.3037 61.514 36.8353C61.5893 36.9113 61.6646 37.0632 61.6646 37.1391C61.6646 37.367 61.6646 37.5948 61.6646 37.8227C61.6646 43.0632 61.6646 48.2277 61.6646 53.4682C61.6646 53.848 61.5893 53.9239 61.2128 53.9239L38.8509 53.9999Z" fill="#ECAE11"/>
<path d="M-0.000172073 36.3797C-0.000172073 30.8353 -0.000172073 25.291 -0.000172073 19.7467C-0.0754646 19.1391 0.300998 18.6075 0.828046 18.3796C2.03273 17.6961 3.23741 16.8607 4.51738 16.1012L8.13142 13.8986L13.7031 10.4809C14.456 10.0252 15.1336 9.56952 15.8866 9.18977C16.0371 9.11383 16.1877 9.11383 16.263 9.18977C18.2206 10.405 20.1029 11.5442 22.0605 12.7594L28.0087 16.405L28.6863 16.8607C28.9875 17.0126 28.9875 17.1645 28.6863 17.3923C28.3851 17.6202 28.084 17.7721 27.7828 17.9999L21.4582 21.8733L15.3595 25.5948C14.9078 25.8227 14.456 26.1265 14.0795 26.4303C13.929 26.5822 13.8537 26.7341 13.7784 26.886C13.7784 27.1138 13.7784 27.3417 13.7784 27.5695C13.7784 36.3037 13.7784 45.0379 13.7784 53.7721C13.7784 54.0759 13.7031 54.2278 13.3266 54.2278H0.451583C0.150413 53.924 -0.000172073 53.848 -0.000172073 53.5442C-0.000172073 49.6708 -0.000172073 45.7214 -0.000172073 41.7721C-0.000172073 40.0252 -0.000172073 38.2024 -0.000172073 36.3797Z" fill="#314F9C"/>
<path d="M61.8151 22.6328C61.8151 26.5062 61.8151 30.3796 61.8151 34.2531C61.8151 34.405 61.7398 34.4809 61.7398 34.6328C61.6645 34.6328 61.5139 34.5569 61.4386 34.4809L56.9963 31.7467C56.1681 31.291 55.4152 30.7594 54.6623 30.3037L50.9729 28.0252L48.4883 26.5822L46.0036 25.0632L43.6696 23.6201L40.7332 21.7974C39.9802 21.3417 39.152 20.81 38.3991 20.3543C37.6462 19.8986 36.8179 19.367 35.9897 18.9113L33.7309 17.4682L30.7945 15.6455L28.0087 13.9746L23.3406 11.2404L19.1995 8.65812L18.2207 8.05052C17.9948 7.89862 17.9948 7.82267 18.2207 7.67078L25.1476 3.41761L30.5687 0.0758381C30.7192 -0.0760606 31.0204 -0.0760606 31.171 0.0758381L36.2909 3.18976L40.8084 5.99989L44.3472 8.12647C45.4766 8.81002 46.606 9.49356 47.6601 10.1771C47.9612 10.329 48.2624 10.405 48.5636 10.405H60.6857C60.9116 10.405 61.1374 10.405 61.3633 10.405C61.5139 10.405 61.7398 10.4809 61.7398 10.6328V10.7088C61.7398 10.7847 61.7398 10.8606 61.7398 10.9366C61.7398 14.886 61.7398 18.7594 61.8151 22.6328Z" fill="white"/>
</g>
<defs>
<clipPath id="clip0_329_408">
<rect width="341" height="54" fill="white"/>
</clipPath>
</defs>
</svg>
