<svg width="15" height="15" viewBox="0 0 15 15" fill="none" xmlns="http://www.w3.org/2000/svg">
<path d="M12.7885 3.96696C12.5971 3.80875 12.351 3.73257 12.1037 3.75504C11.8564 3.7775 11.6279 3.89679 11.4682 4.0869L7.50012 8.84792L3.53199 4.08698C3.3727 3.89612 3.14411 3.77635 2.89651 3.75403C2.64892 3.73171 2.4026 3.80866 2.21173 3.96796C2.02087 4.12725 1.90111 4.35584 1.87879 4.60343C1.85647 4.85103 1.93342 5.09735 2.09271 5.28821L6.78048 10.9135C6.86842 11.0189 6.97846 11.1038 7.10282 11.162C7.22717 11.2202 7.36281 11.2504 7.50012 11.2504C7.63743 11.2504 7.77306 11.2202 7.89742 11.162C8.02178 11.1038 8.13182 11.0189 8.21976 10.9135L12.9075 5.28814C13.0668 5.09708 13.1437 4.85064 13.1214 4.60293C13.099 4.35521 12.9793 4.12648 12.7885 3.96696Z" fill="#FF9F49"/>
</svg>
