<svg width="20" height="22" viewBox="0 0 20 22" fill="none" xmlns="http://www.w3.org/2000/svg">
<path d="M19.3333 19.0504V7.05406C19.5943 7.05132 19.8305 6.88967 19.9396 6.63889C20.0476 6.39263 20.0084 6.10228 19.8396 5.89801L17.3666 2.85229C17.1666 2.60813 16.8756 2.46861 16.5703 2.47054H12.1939L10.79 0.409057C10.5992 0.14907 10.305 -0.00207769 9.99405 2.15821e-05C9.68308 0.00212085 9.39072 0.157144 9.20289 0.419553L7.80595 2.47054H3.42957C3.12425 2.46861 2.83341 2.60813 2.63337 2.85229L0.160228 5.89769C-0.00853443 6.10196 -0.0475969 6.39231 0.0602827 6.63841C0.169383 6.88951 0.405589 7.05132 0.666667 7.05406V19.0504C0.298472 19.0504 1.04786e-05 19.3663 1.04786e-05 19.756V20.4615C1.04786e-05 20.8511 0.298472 21.167 0.666667 21.167H19.3333C19.7015 21.167 20 20.8511 20 20.4615V19.756C20 19.3663 19.7015 19.0504 19.3333 19.0504ZM12.3332 19.0504V14.8173C12.3322 13.8436 11.5866 13.0546 10.6667 13.0535H9.33335C8.41325 13.0546 7.6677 13.8436 7.66663 14.8173V19.0504H5.66666V7.05649H14.3333V19.0504H12.3332ZM8.33329 19.0504V17.6394H9.6666V19.0504H8.33329ZM10.6667 13.759C11.2189 13.759 11.6666 14.2328 11.6666 14.8173H10.3333V13.759H10.6667ZM8.33329 15.5229H9.6666V16.9339H8.33329V15.5229ZM10.3333 15.5229H11.6666V16.9339H10.3333V15.5229ZM9.6666 14.8173H8.33329C8.33329 14.2328 8.78098 13.759 9.33335 13.759H9.6666V14.8173ZM10.3333 17.6394H11.6666V19.0504H10.3333V17.6394ZM15 7.05649H18.6667V19.0504H15V7.05649ZM16.5703 3.17606C16.6809 3.17461 16.7867 3.22418 16.8599 3.31187L19.3156 6.35097H14.8373L12.6746 3.17606H16.5703ZM9.73694 0.842153C9.80195 0.763027 9.89564 0.716681 9.99482 0.714743C10.094 0.712806 10.1892 0.755437 10.257 0.83198L14.0154 6.35097H5.86961L8.24235 3.03492L8.24464 3.0304L8.24692 3.02798L9.73694 0.842153ZM3.14057 3.31154C3.21381 3.22402 3.31925 3.17461 3.42957 3.17606H7.30592L5.03327 6.35097H0.999918C0.99 6.35097 0.981303 6.3563 0.971232 6.35694H0.665904L3.14057 3.31154ZM1.33332 7.05649H5.00001V19.0504H1.33332V7.05649ZM0.666667 20.4615V19.756H19.3333V20.4615H0.666667Z" fill="#ECAE11"/>
<path d="M7.83293 7.76172C7.005 7.76269 6.33392 8.47289 6.33301 9.34925V11.995C6.33301 12.1897 6.48224 12.3477 6.66626 12.3477H8.99961C9.18378 12.3477 9.33301 12.1897 9.33301 11.995V9.34925C9.33209 8.47289 8.66102 7.76269 7.83293 7.76172ZM7.83293 8.46724C8.29313 8.46724 8.66636 8.86206 8.66636 9.34925V10.2311H6.99966V9.34925C6.99966 8.86206 7.37273 8.46724 7.83293 8.46724ZM6.99966 11.6421V10.9366H8.66636V11.6421H6.99966Z" fill="#ECAE11"/>
<path d="M3.33331 13.4062H2.99991C2.44769 13.4062 2 13.88 2 14.4644V17.6393C2 17.8343 2.14923 17.9922 2.33325 17.9922H3.99997C4.18414 17.9922 4.33337 17.8343 4.33337 17.6393V14.4644C4.33337 13.88 3.88553 13.4062 3.33331 13.4062ZM2.99991 14.1118H3.33331C3.51749 14.1118 3.66672 14.2697 3.66672 14.4644V15.8755H2.66666V14.4644C2.66666 14.2697 2.81589 14.1118 2.99991 14.1118ZM2.66666 17.2867V16.581H3.66672V17.2867H2.66666Z" fill="#ECAE11"/>
<path d="M3.33331 8.11426H2.99991C2.44769 8.11426 2 8.58805 2 9.17245V12.3474C2 12.5423 2.14923 12.7002 2.33325 12.7002H3.99997C4.18414 12.7002 4.33337 12.5423 4.33337 12.3474V9.17245C4.33337 8.58805 3.88553 8.11426 3.33331 8.11426ZM2.99991 8.81977H3.33331C3.51749 8.81977 3.66672 8.9777 3.66672 9.17245V10.5835H2.66666V9.17245C2.66666 8.9777 2.81589 8.81977 2.99991 8.81977ZM2.66666 11.9947V11.289H3.66672V11.9947H2.66666Z" fill="#ECAE11"/>
<path d="M16.9993 13.4062H16.6659C16.1137 13.4062 15.666 13.88 15.666 14.4644V17.6393C15.666 17.8343 15.8152 17.9922 15.9993 17.9922H17.6659C17.8499 17.9922 17.9991 17.8343 17.9991 17.6393V14.4644C17.9991 13.88 17.5515 13.4062 16.9993 13.4062ZM16.6659 14.1118H16.9993C17.1833 14.1118 17.3325 14.2697 17.3325 14.4644V15.8755H16.3326V14.4644C16.3326 14.2697 16.4819 14.1118 16.6659 14.1118ZM16.3326 17.2867V16.581H17.3325V17.2867H16.3326Z" fill="#ECAE11"/>
<path d="M16.9993 8.11426H16.6659C16.1137 8.11426 15.666 8.58805 15.666 9.17245V12.3474C15.666 12.5423 15.8152 12.7002 15.9993 12.7002H17.6659C17.8499 12.7002 17.9991 12.5423 17.9991 12.3474V9.17245C17.9991 8.58805 17.5515 8.11426 16.9993 8.11426ZM16.6659 8.81977H16.9993C17.1833 8.81977 17.3325 8.9777 17.3325 9.17245V10.5835H16.3326V9.17245C16.3326 8.9777 16.4819 8.81977 16.6659 8.81977ZM16.3326 11.9947V11.289H17.3325V11.9947H16.3326Z" fill="#ECAE11"/>
<path d="M12.1669 7.76172C11.3388 7.76269 10.6679 8.47289 10.667 9.34925V11.995C10.667 12.1897 10.8162 12.3477 11.0002 12.3477H13.3336C13.5178 12.3477 13.667 12.1897 13.667 11.995V9.34925C13.6661 8.47289 12.995 7.76269 12.1669 7.76172ZM12.1669 8.46724C12.6271 8.46724 13.0002 8.86206 13.0002 9.34925V10.2311H11.3336V9.34925C11.3336 8.86206 11.7067 8.46724 12.1669 8.46724ZM11.3336 11.6421V10.9366H13.0002V11.6421H11.3336Z" fill="#ECAE11"/>
</svg>
