<?xml version="1.0" encoding="utf-8"?>
<!-- Generator: Adobe Illustrator 23.0.1, SVG Export Plug-In . SVG Version: 6.00 Build 0)  -->
<svg version="1.1" id="Слой_1" xmlns="http://www.w3.org/2000/svg" xmlns:xlink="http://www.w3.org/1999/xlink" x="0px" y="0px"
	 viewBox="0 0 42 42" style="enable-background:new 0 0 42 42;" xml:space="preserve">
<style type="text/css">
	.st0{fill:#ECAE11;}
</style>
<path class="st0" d="M0,0v42h42V0H0z M41,41H1V1h40V41z"/>
<rect y="20.5" class="st0" width="42" height="1"/>
<rect x="0" y="20.5" transform="matrix(1.122143e-10 -1 1 1.122143e-10 -2.351499e-09 42)" class="st0" width="42" height="1"/>
<rect x="10" y="5" class="st0" width="1" height="11"/>
<rect x="10" y="5" transform="matrix(4.547480e-11 -1 1 4.547480e-11 -4.761205e-10 21)" class="st0" width="1" height="11"/>
<rect x="31" y="5" transform="matrix(4.365581e-11 -1 1 4.365581e-11 21 42)" class="st0" width="1" height="11"/>
<rect x="31" y="23" transform="matrix(4.365581e-11 -1 1 4.365581e-11 3 60)" class="st0" width="1" height="11"/>
<rect x="31" y="28" transform="matrix(4.365581e-11 -1 1 4.365581e-11 -2 65)" class="st0" width="1" height="11"/>
<rect x="10" y="25" transform="matrix(-0.7071 0.7071 -0.7071 -0.7071 39.4914 44.6421)" class="st0" width="1" height="11"/>
<rect x="10" y="25" transform="matrix(-0.7071 -0.7071 0.7071 -0.7071 -3.6421 59.4914)" class="st0" width="1" height="11"/>
</svg>
