<?xml version="1.0" encoding="utf-8"?>
<!-- Generator: Adobe Illustrator 23.0.1, SVG Export Plug-In . SVG Version: 6.00 Build 0)  -->
<svg version="1.1" id="Слой_1" xmlns="http://www.w3.org/2000/svg" xmlns:xlink="http://www.w3.org/1999/xlink" x="0px" y="0px"
	 viewBox="0 0 29 18" style="enable-background:new 0 0 29 18;" xml:space="preserve">
<path d="M0.8,10h4.5C5.7,10,6,10.2,6,10.5S5.7,11,5.3,11H0.8C0.3,11,0,10.8,0,10.5S0.3,10,0.8,10z"/>
<path d="M1.8,8h4.5C6.7,8,7,8.2,7,8.5S6.7,9,6.3,9H1.8C1.3,9,1,8.8,1,8.5S1.3,8,1.8,8z"/>
<path d="M2.8,6h4.5C7.7,6,8,6.2,8,6.5S7.7,7,7.3,7H2.8C2.3,7,2,6.8,2,6.5S2.3,6,2.8,6z"/>
<path d="M23.5,13c-1.4,0-2.5,1.1-2.5,2.5s1.1,2.5,2.5,2.5s2.5-1.1,2.5-2.5S24.9,13,23.5,13z M23.5,17c-0.8,0-1.5-0.7-1.5-1.5
	s0.7-1.5,1.5-1.5s1.5,0.7,1.5,1.5S24.3,17,23.5,17z"/>
<path d="M10.5,13C9.1,13,8,14.1,8,15.5S9.1,18,10.5,18s2.5-1.1,2.5-2.5S11.9,13,10.5,13z M10.5,17C9.7,17,9,16.3,9,15.5
	S9.7,14,10.5,14s1.5,0.7,1.5,1.5S11.3,17,10.5,17z"/>
<rect x="4" y="8" width="1" height="1"/>
<path d="M7.5,13h-2C5.2,13,5,12.8,5,12.5V10H4v2.5C4,13.3,4.7,14,5.5,14h2C8.2,14,8.2,13,7.5,13z"/>
<path d="M28.9,9.5l-4-6.3C24.8,3.1,24.7,3,24.5,3H20V1.5C20,0.7,19.3,0,18.5,0h-13C4.7,0,4,0.7,4,1.5V7h1V1.5C5,1.2,5.2,1,5.5,1h13
	C18.8,1,19,1.2,19,1.5V13h-5.5c-0.7,0-0.6,1,0,1h7c0.7,0,0.7-1,0-1H20V4h4.2L28,9.9v2.6c0,0.3-0.2,0.5-0.5,0.5h-1c-0.7,0-0.7,1,0,1
	h1c0.8,0,1.5-0.7,1.5-1.5V9.8C29,9.7,29,9.6,28.9,9.5z"/>
<path d="M23.5,5c-0.1-0.1-0.2-0.2-0.3-0.2h0v0.9l2.3,3.7v1.7c0,0.2-0.1,0.3-0.3,0.3h-0.7c-0.4,0-0.4,0.7,0,0.7h0.7c0.5,0,1-0.4,1-1
	V9.3c0-0.1,0-0.1-0.1-0.2L23.5,5z"/>
<rect x="22.9" y="11.5" width="1.7" height="0.7"/>
<rect x="22.7" y="4.9" width="0.5" height="7.3"/>
</svg>
