<svg width="50" height="50" viewBox="0 0 50 50" fill="none" xmlns="http://www.w3.org/2000/svg">
<g clip-path="url(#clip0_316_373)">
<path d="M49.7659 22.4992C49.7243 22.1031 49.5206 21.742 49.2033 21.5016L45.3293 18.5671L46.7388 13.9164C46.8543 13.5352 46.8069 13.1233 46.6078 12.7784C46.4088 12.4336 46.0757 12.1866 45.688 12.096L40.9552 10.9909L40.3511 6.16887C40.3016 5.7738 40.0908 5.41675 39.7686 5.18282C39.4466 4.94861 39.0418 4.85825 38.6508 4.93342L33.8779 5.84888L31.3644 1.68951C31.1584 1.34879 30.8206 1.10837 30.4311 1.02565C30.0416 0.942838 29.6353 1.02489 29.3085 1.25251L25.3209 4.0301L21.3331 1.25261C21.0062 1.02508 20.5998 0.942933 20.2104 1.02575C19.8209 1.10847 19.4831 1.34879 19.2772 1.6897L16.764 5.84916L11.9911 4.93371C11.6001 4.85882 11.1954 4.94899 10.8733 5.18311C10.5512 5.41713 10.3403 5.77399 10.2909 6.16915L9.68673 10.9912L4.95396 12.0963C4.56616 12.1868 4.23327 12.4339 4.03412 12.7787C3.83506 13.1236 3.78768 13.5354 3.90307 13.9164L5.31235 18.5673L1.43868 21.5016C1.12127 21.742 0.917623 22.103 0.876072 22.4991C0.834426 22.8951 0.958505 23.2906 1.21908 23.5918L4.39804 27.2675L2.05258 31.5237C1.86039 31.8724 1.82123 32.2852 1.94426 32.6639C2.06738 33.0424 2.34162 33.3533 2.70211 33.5225L7.10132 35.5872L6.68973 40.4297C6.65592 40.8265 6.78793 41.2195 7.05452 41.5154C7.32083 41.8113 7.69803 41.9837 8.09606 41.9917L12.9551 42.0885L14.5485 46.6796C14.679 47.0557 14.9595 47.3612 15.3232 47.5231C15.6871 47.6852 16.1016 47.6891 16.4686 47.5345L20.9471 45.6468L24.2702 49.1929C24.5425 49.4834 24.9228 49.6483 25.321 49.6483C25.7192 49.6483 26.0995 49.4834 26.3719 49.1929L29.6951 45.6468L34.1732 47.5345C34.5401 47.689 34.9547 47.6849 35.3185 47.5231C35.6822 47.3612 35.9627 47.0559 36.0932 46.6797L37.6868 42.0885L42.5457 41.9917C42.9437 41.9838 43.3208 41.8113 43.5872 41.5154C43.8536 41.2195 43.9857 40.8265 43.952 40.4297L43.5404 35.5872L47.9399 33.5225C48.3005 33.3533 48.5748 33.0424 48.6978 32.6638C48.8208 32.2853 48.7816 31.8724 48.5894 31.5236L46.2437 27.2674L49.423 23.5917C49.6833 23.2907 49.8074 22.8951 49.7659 22.4992ZM25.3209 39.1024C17.7218 39.1024 11.5396 32.9202 11.5396 25.3212C11.5396 17.7222 17.7219 11.5399 25.3209 11.5399C32.9199 11.5399 39.1021 17.7223 39.1021 25.3212C39.1021 32.9201 32.9199 39.1024 25.3209 39.1024Z" fill="white"/>
<path d="M25.3207 14.4199C19.31 14.4199 14.4199 19.31 14.4199 25.3207C14.4199 31.3314 19.3101 36.2215 25.3207 36.2215C31.3316 36.2215 36.2215 31.3314 36.2215 25.3207C36.2215 19.31 31.3315 14.4199 25.3207 14.4199ZM30.967 23.254L24.7966 29.4244C24.5153 29.7056 24.1468 29.8463 23.7782 29.8463C23.4097 29.8463 23.0411 29.7056 22.76 29.4244L19.6745 26.3391C19.1122 25.7768 19.1122 24.8649 19.6745 24.3024C20.2368 23.7401 21.1488 23.7399 21.7113 24.3024L23.7782 26.3692L28.9303 21.2172C29.4927 20.6549 30.4046 20.6547 30.9671 21.2172C31.5294 21.7796 31.5294 22.6916 30.967 23.254Z" fill="white"/>
</g>
<defs>
<clipPath id="clip0_316_373">
<rect width="48.9057" height="48.9057" fill="white" transform="translate(0.868164 0.86792)"/>
</clipPath>
</defs>
</svg>
