<svg width="50" height="50" viewBox="0 0 50 50" fill="none" xmlns="http://www.w3.org/2000/svg">
<g clip-path="url(#clip0_316_346)">
<path d="M42.6404 3.73999H36.9093C36.3648 3.73999 35.8777 4.02645 35.6484 4.48504L44.0732 11.6776V5.17277C44.0732 4.37032 43.4429 3.73999 42.6404 3.73999Z" fill="white"/>
<path d="M19.7812 35.2546V49.7735H31.2435V35.2546H19.7812ZM26.9452 40.9858C26.1539 40.9858 25.5124 40.3443 25.5124 39.553C25.5124 38.7617 26.1539 38.1202 26.9452 38.1202C27.7364 38.1202 28.3779 38.7617 28.3779 39.553C28.3779 40.3443 27.7364 40.9858 26.9452 40.9858Z" fill="white"/>
<path d="M28.2819 20.927H22.5508V26.6581H28.2819V20.927Z" fill="white"/>
<path d="M48.7732 19.9612L27.3108 1.5633C26.7874 1.11417 26.1242 0.86792 25.447 0.86792C24.7698 0.86792 24.1066 1.11417 23.5832 1.56616L1.86854 19.9518C0.681052 20.9696 0.529463 22.7518 1.52811 23.9555C2.54959 25.1868 4.38174 25.3426 5.59655 24.3015L25.447 7.51412L45.0434 24.3122C46.3989 25.4741 48.4753 25.1269 49.3792 23.5874C50.0816 22.3913 49.8263 20.8639 48.7732 19.9612Z" fill="white"/>
<path d="M25.4165 11.2805L6.52734 27.2449V48.3405C6.52734 49.143 7.15767 49.7733 7.96013 49.7733H16.8198V33.8217C16.8198 33.0297 17.4606 32.3889 18.2526 32.3889H32.5804C33.3723 32.3889 34.0132 33.0297 34.0132 33.8217V49.7733H42.6099C43.4123 49.7733 44.0427 49.143 44.0427 48.3405V27.2479L25.4165 11.2805ZM31.1476 28.0905C31.1476 28.8825 30.5068 29.5233 29.7148 29.5233H21.1181C20.3262 29.5233 19.6854 28.8825 19.6854 28.0905V19.4938C19.6854 18.7019 20.3262 18.061 21.1181 18.061H29.7148C30.5068 18.061 31.1476 18.7019 31.1476 19.4938V28.0905Z" fill="white"/>
</g>
<defs>
<clipPath id="clip0_316_346">
<rect width="48.9057" height="48.9057" fill="white" transform="translate(0.868164 0.86792)"/>
</clipPath>
</defs>
</svg>
