<svg width="53" height="53" viewBox="0 0 53 53" fill="none" xmlns="http://www.w3.org/2000/svg">
<g clip-path="url(#clip0_316_364)">
<path d="M48.1082 49.8226L45.2539 47.073C42.0239 43.9617 37.9952 41.8372 33.6034 40.9295L31.2118 40.4351V38.8908C35.188 36.0206 38.1332 30.4222 38.4832 24.2852H11.8578C12.1459 30.6172 15.0571 36.2035 19.2136 39.0536V40.4352L16.8221 40.9295C12.4303 41.8372 8.40164 43.9616 5.17166 47.073L2.31739 49.8226C1.81339 50.308 1.65487 51.0509 1.91661 51.6998C2.17835 52.3487 2.80798 52.7737 3.50765 52.7737H46.918C47.6177 52.7737 48.2474 52.3486 48.509 51.6998C48.7708 51.0509 48.6122 50.308 48.1082 49.8226Z" fill="white"/>
<path d="M47.8053 14.637H39.8676C39.6898 6.98423 33.1592 0.811279 25.1567 0.811279C17.0427 0.811279 10.4414 7.15727 10.4414 14.9575V17.5634C10.4414 19.1796 11.8044 20.4899 13.4856 20.4899C14.3325 20.4899 35.974 20.4899 36.8277 20.4899H47.8054C49.4866 20.4899 50.8496 19.1796 50.8496 17.5634C50.8496 15.9472 49.4867 14.637 47.8053 14.637Z" fill="white"/>
</g>
<defs>
<clipPath id="clip0_316_364">
<rect width="51.9623" height="51.9623" fill="white" transform="translate(0.339844 0.811279)"/>
</clipPath>
</defs>
</svg>
