<svg width="50" height="50" viewBox="0 0 50 50" fill="none" xmlns="http://www.w3.org/2000/svg">
<g clip-path="url(#clip0_126_191)">
<path d="M25 0C20.0555 0 15.222 1.46622 11.1108 4.21326C6.99953 6.96029 3.79521 10.8648 1.90302 15.4329C0.010832 20.0011 -0.484251 25.0277 0.480379 29.8773C1.44501 34.7268 3.82603 39.1814 7.32234 42.6777C10.8187 46.174 15.2732 48.555 20.1228 49.5196C24.9723 50.4843 29.9989 49.9892 34.5671 48.097C39.1353 46.2048 43.0397 43.0005 45.7868 38.8893C48.5338 34.778 50 29.9445 50 25C49.9928 18.3718 47.3565 12.0172 42.6697 7.33032C37.9828 2.64348 31.6282 0.00723772 25 0V0ZM25 47.6562C20.519 47.6562 16.1387 46.3275 12.4129 43.838C8.68707 41.3485 5.78316 37.8101 4.06837 33.6702C2.35357 29.5303 1.9049 24.9749 2.77909 20.58C3.65329 16.1851 5.81109 12.1481 8.97962 8.97961C12.1482 5.81108 16.1851 3.65328 20.58 2.77908C24.9749 1.90489 29.5303 2.35356 33.6702 4.06835C37.8101 5.78315 41.3485 8.68706 43.838 12.4129C46.3275 16.1387 47.6563 20.519 47.6563 25C47.649 31.0066 45.2597 36.7651 41.0124 41.0124C36.7651 45.2597 31.0066 47.649 25 47.6562Z" fill="#FF902C"/>
<path d="M34.3359 16.5468L19.6953 30.9453L15.6914 26.7304C15.4755 26.5137 15.1834 26.3899 14.8775 26.3856C14.5715 26.3814 14.2761 26.4969 14.0542 26.7075C13.8323 26.9182 13.7016 27.2073 13.6901 27.513C13.6785 27.8187 13.7869 28.1169 13.9922 28.3437L18.8164 33.4218C18.9235 33.5342 19.0518 33.6242 19.194 33.6866C19.3362 33.7489 19.4893 33.7824 19.6445 33.7851H19.664C19.9709 33.7849 20.2655 33.6642 20.4844 33.4492L35.9726 18.2148C36.0824 18.1068 36.1698 17.9783 36.2299 17.8365C36.29 17.6947 36.3216 17.5425 36.3229 17.3885C36.3242 17.2346 36.2951 17.0818 36.2373 16.9391C36.1796 16.7963 36.0943 16.6664 35.9863 16.5566C35.8783 16.4468 35.7498 16.3594 35.608 16.2993C35.4662 16.2392 35.314 16.2076 35.16 16.2063C35.0061 16.2051 34.8533 16.2341 34.7106 16.2919C34.5679 16.3496 34.4379 16.4349 34.3281 16.5429L34.3359 16.5468Z" fill="#FF902C"/>
</g>
<defs>
<clipPath id="clip0_126_191">
<rect width="50" height="50" fill="white"/>
</clipPath>
</defs>
</svg>
